Coordinates
version=1
nRows=13
nColumns=36
inDegrees=yes

Units are S.I. units (second, meters, Newtons, ...)
If the header above contains a line with 'inDegrees', this indicates whether rotational values are in degrees (yes) or radians (no).

endheader
time	pelvis_tilt	pelvis_list	pelvis_rotation	pelvis_tx	pelvis_ty	pelvis_tz	hip_flexion_r	hip_adduction_r	hip_rotation_r	knee_angle_r	knee_angle_r_beta	ankle_angle_r	subtalar_angle_r	mtp_angle_r	hip_flexion_l	hip_adduction_l	hip_rotation_l	knee_angle_l	knee_angle_l_beta	ankle_angle_l	subtalar_angle_l	mtp_angle_l	lumbar_extension	lumbar_bending	lumbar_rotation	arm_flex_r	arm_add_r	arm_rot_r	elbow_flex_r	pro_sup_r	arm_flex_l	arm_add_l	arm_rot_l	elbow_flex_l	pro_sup_l
      0.96400000	    -18.41451798	     10.07944690	     -2.46312641	      3.27572335	      0.94085938	      0.25933349	    -28.17391246	    -11.88452260	     -7.89715200	     32.59438893	      0.56887940	    -33.83460839	     -7.06431666	     -1.11622147	     76.13331225	      0.28696300	    -11.96828455	     56.81998723	      0.99169586	      4.07157462	     -6.08948751	    -19.47426184	      9.45762313	    -15.16105197	      9.79464792	     44.56120205	    -17.77253160	      6.77725133	    125.69930657	     90.00021046	    -78.80117251	    -12.97489934	    -30.46405604	     52.02291951	     90.00021046
      0.96800000	    -17.99866020	     10.04434616	     -1.75943380	      3.31375731	      0.94279776	      0.25886520	    -27.92271981	    -11.96169007	     -8.68601269	     37.69494645	      0.65790093	    -34.27769856	     -6.97143362	     -1.50822991	     73.93425652	      1.27374274	    -12.00926404	     51.45704052	      0.89809478	      4.42035920	     -1.79348036	    -20.31317427	      8.40191210	    -15.47857985	      8.86576281	     42.49182211	    -18.12840275	      6.78525648	    126.87671894	     90.00021046	    -77.29632309	    -12.86409028	    -30.42204916	     52.15757223	     90.00021046
      0.97200000	    -17.67643445	      9.78788475	     -1.07056334	      3.35172657	      0.94470375	      0.25851005	    -27.39601135	    -11.83802462	     -9.17502918	     42.96291689	      0.74984436	    -34.60507361	     -6.83950106	     -3.55713139	     71.79108354	      2.04836997	    -12.06722648	     46.39559694	      0.80975593	      4.12856858	      2.09644310	    -25.16918582	      7.46360465	    -15.48468664	      7.97188363	     40.05544344	    -18.49056336	      6.80129293	    127.75357153	     90.00021046	    -75.70797845	    -12.92143047	    -29.98974343	     52.48926243	     90.00021046
      0.97600000	    -17.24444206	      9.27414118	     -0.70902053	      3.38949049	      0.94641561	      0.25883430	    -26.60354566	    -11.50935513	     -9.07731817	     48.67764115	      0.84958511	    -34.42275314	     -7.49596928	     -5.37824177	     69.64824286	      2.22654227	    -12.42797893	     42.03487144	      0.73364691	      3.72676105	      5.72892391	    -25.60304131	      6.43798878	    -15.15733439	      7.35089817	     37.48455999	    -18.79265123	      6.74727619	    128.21906762	     90.00021046	    -74.01716332	    -13.02621342	    -29.41605012	     53.09455757	     90.00021046
      0.98000000	    -16.77701048	      8.17622415	      0.15803990	      3.42739892	      0.94753629	      0.25895270	    -25.92365727	    -10.25407669	     -8.98994679	     54.10787513	      0.94436057	    -34.57656106	     -7.54453696	     -5.73095420	     67.68112057	      2.51597507	    -12.22517788	     38.42668265	      0.67067213	      3.14581547	      8.50906509	    -25.62706617	      5.31069770	    -14.18068256	      5.99686919	     34.94594920	    -18.94615582	      6.94438483	    128.12427765	     90.00021046	    -72.39610902	    -12.93940162	    -28.94288050	     54.03113960	     90.00021046
      0.98400000	    -16.22295686	      7.27225459	      0.83653128	      3.46503929	      0.94847739	      0.25925755	    -25.18133562	     -9.26357488	     -8.92532889	     59.69169101	      1.04181654	    -34.07035496	     -8.03407155	     -6.19660822	     65.74123530	      2.54906481	    -12.68910847	     35.48480169	      0.61932662	      2.52154508	     11.08564208	    -25.72919954	      4.09097097	    -13.35454172	      4.95779715	     32.28687171	    -19.19977406	      7.05611070	    127.72722849	     90.00021046	    -70.54713710	    -13.07970979	    -28.22861545	     54.98960336	     90.00021046
      0.98800000	    -15.49941439	      7.07260874	      0.05251656	      3.50234807	      0.94974939	      0.26085903	    -24.09034682	     -9.64206353	     -7.78971959	     65.69847186	      1.14665465	    -33.25554023	     -8.27002380	     -7.74536341	     63.55006240	      1.56057530	    -14.85647530	     33.08628196	      0.57746456	      2.35734147	     12.97481996	    -26.44639091	      2.93516041	    -13.13198939	      5.69177656	     29.36493553	    -19.43626578	      6.88318729	    127.17473844	     90.00021046	    -68.60230162	    -13.82643114	    -26.51538217	     56.17925825	     90.00021046
      0.99200000	    -15.01890156	      6.32779692	      0.80457435	      3.54005068	      0.95001690	      0.26091119	    -23.24156453	     -8.75484532	     -7.88445498	     71.12747135	      1.24140856	    -32.38770191	     -8.69604636	     -8.19040904	     61.86963429	      1.73027928	    -15.62380476	     31.43442855	      0.54863428	      2.23790069	     13.34880009	    -26.52707978	      1.84489142	    -12.40809015	      4.55227955	     26.60875978	    -19.42639764	      6.89530505	    125.86700975	     90.00021046	    -66.70578602	    -13.94387486	    -25.76451896	     57.44615168	     90.00021046
      0.99600000	    -14.38445887	      5.85604050	      1.28973520	      3.57743602	      0.95031922	      0.26131683	    -22.44325255	     -8.18907138	     -7.79383768	     76.60352356	      1.33698370	    -30.83342217	     -9.17221021	     -8.64447143	     60.12100313	      1.77762324	    -16.83419500	     30.45109154	      0.53147181	      2.21119011	     12.72436056	    -26.60889426	      0.60599253	    -11.92170946	      3.71397258	     23.95308093	    -19.29756427	      6.86871459	    124.15058671	     90.00021046	    -64.70980170	    -14.34211826	    -24.59130921	     58.83895095	     90.00021046
      1.00000000	    -13.84435388	      6.42866447	      0.69721058	      3.61471200	      0.95073625	      0.26182305	    -21.23367878	     -9.31060880	     -7.06532397	     82.31684927	      1.43670005	    -29.60392753	     -9.31037796	    -13.12563302	     58.41221392	      1.64445021	    -19.32996656	     29.86840543	      0.52130202	      2.02934905	     10.53421890	    -28.73917595	     -0.31749469	    -12.47274912	      4.28212705	     20.99422122	    -19.16897420	      6.50478484	    122.25728242	     90.00021046	    -62.66355427	    -15.33913861	    -22.51196436	     60.47327926	     90.00021046
      1.00400000	    -13.24644938	      6.43462230	      0.95055901	      3.65193316	      0.95077881	      0.26179065	    -20.27571371	     -9.47918242	     -6.98293440	     87.70252482	      1.53069782	    -28.22038074	     -9.66635916	    -13.29391839	     56.92242984	      1.80577836	    -20.54061053	     30.08863886	      0.52514582	      1.79855289	      8.56229441	    -28.34972802	     -1.49282059	    -12.41394504	      3.68206423	     18.43602143	    -18.88994221	      6.31508002	    119.72662473	     90.00021046	    -60.38438566	    -15.91993061	    -20.97298907	     61.74392831	     90.00021046
      1.00800000	    -12.82282636	      6.56768757	      1.14563184	      3.68901250	      0.95065400	      0.26201749	    -19.03359060	     -9.75410634	     -6.77560723	     93.04359916	      1.62391715	    -26.94797726	    -10.20974649	    -13.17787899	     55.61413490	      1.93146174	    -21.83725971	     30.64637194	      0.53488009	      1.38221231	      6.54364142	    -27.20847465	     -2.45247077	    -12.52765503	      3.23930443	     15.82732109	    -18.44055474	      5.86450278	    116.78688120	     90.00021046	    -57.99708002	    -16.63684469	    -19.43161242	     63.04215628	     90.00021046
      1.01200000	    -12.44589615	      6.59447510	      1.51582530	      3.72570013	      0.95036416	      0.26219806	    -17.66048787	     -9.91198731	     -6.67413673	     98.29334581	      1.71554252	    -25.86826707	    -10.63020040	    -13.04562112	     54.42179281	      2.05126231	    -22.79203447	     31.61063631	      0.55170968	      0.76371131	      4.79792523	    -26.40102376	     -3.42211029	    -12.51258762	      2.48638809	     13.51420318	    -17.92059009	      5.57683243	    113.36467250	     90.00021046	    -55.49498920	    -17.25178798	    -17.97646352	     64.26723419	     90.00021046
